<svg xmlns="http://www.w3.org/2000/svg" viewBox="0 0 60 75" x="0px" y="0px"><path d="M29,20.051v-2A15,15,0,0,0,15.051,32h2A13,13,0,0,1,29,20.051Z"/><path d="M16,58H44a2,2,0,0,0,2-2H14A2,2,0,0,0,16,58Z"/><path d="M17.051,34h-2A15,15,0,0,0,29,47.949v-2A13,13,0,0,1,17.051,34Z"/><path d="M31,43.949A11.01,11.01,0,0,0,40.949,34H40a1,1,0,0,1,0-2h.949A11.01,11.01,0,0,0,31,22.051V23a1,1,0,0,1-2,0v-.949A11.01,11.01,0,0,0,19.051,32H20a1,1,0,0,1,0,2h-.949A11.01,11.01,0,0,0,29,43.949V43a1,1,0,0,1,2,0ZM30,36a3,3,0,1,1,3-3A3,3,0,0,1,30,36Z"/><circle cx="30" cy="33" r="1"/><path d="M31,45.949v2A15,15,0,0,0,44.949,34h-2A13,13,0,0,1,31,45.949Z"/><path d="M31,18.051v2A13,13,0,0,1,42.949,32h2A15,15,0,0,0,31,18.051Z"/><path d="M49,12H11a2,2,0,0,0-2,2V52a2,2,0,0,0,2,2H49a2,2,0,0,0,2-2V14A2,2,0,0,0,49,12ZM48,34H46.949A16.994,16.994,0,0,1,31,49.949V51a1,1,0,0,1-2,0V49.949A16.994,16.994,0,0,1,13.051,34H12a1,1,0,0,1,0-2h1.051A16.994,16.994,0,0,1,29,16.051V15a1,1,0,0,1,2,0v1.051A16.994,16.994,0,0,1,46.949,32H48a1,1,0,0,1,0,2Z"/><path d="M16,2a2,2,0,0,0-2,2v6H46V4a2,2,0,0,0-2-2H40V5a3,3,0,0,1-3,3H23a3,3,0,0,1-3-3V2ZM42,5a1,1,0,0,1,2,0V6a1,1,0,0,1-2,0ZM18,6a1,1,0,0,1-2,0V5a1,1,0,0,1,2,0Z"/><path d="M37,6a1,1,0,0,0,1-1V2H22V5a1,1,0,0,0,1,1Z"/><text x="0" y="75" fill="#000000" font-size="5px" font-weight="bold" font-family="'Helvetica Neue', Helvetica, Arial-Unicode, Arial, Sans-serif">Created by Juicy Fish</text><text x="0" y="80" fill="#000000" font-size="5px" font-weight="bold" font-family="'Helvetica Neue', Helvetica, Arial-Unicode, Arial, Sans-serif">from the Noun Project</text></svg>